<?xml version="1.0" standalone="no"?>
<!DOCTYPE svg PUBLIC "-//W3C//DTD SVG 20010904//EN"
 "http://www.w3.org/TR/2001/REC-SVG-20010904/DTD/svg10.dtd">
<svg version="1.0" xmlns="http://www.w3.org/2000/svg"
 width="630.000000pt" height="380.000000pt" viewBox="0 0 630.000000 380.000000"
 preserveAspectRatio="xMidYMid meet">

<g transform="translate(0.000000,380.000000) scale(0.100000,-0.100000)"
fill="#000000" stroke="none">
<path d="M1520 3263 c-72 -24 -133 -78 -168 -148 -21 -45 -38 -165 -22 -165 7
0 10 -378 10 -1079 0 -709 3 -1082 10 -1086 6 -3 10 -15 10 -26 0 -30 59 -103
106 -132 41 -24 85 -33 222 -41 l52 -4 0 1004 c0 621 4 1004 9 1004 6 0 13 -5
16 -10 4 -6 22 -21 40 -33 51 -34 144 -100 793 -565 l603 -431 597 426 c328
234 620 442 647 462 121 89 196 141 204 141 5 0 8 -420 7 -987 -1 -544 0 -994
2 -1000 6 -19 142 -16 210 3 45 13 69 28 113 73 94 93 88 1 86 1281 l-2 1115
-24 45 c-29 56 -86 117 -126 135 -16 7 -53 15 -82 18 l-52 4 -158 -114 c-87
-63 -189 -136 -228 -163 -38 -27 -125 -89 -192 -137 -66 -48 -213 -154 -325
-234 -111 -80 -307 -220 -435 -312 -128 -92 -237 -167 -244 -167 -7 0 -26 11
-43 24 -30 23 -350 253 -836 601 -124 88 -263 186 -310 217 -47 31 -157 109
-245 172 -134 97 -165 116 -195 115 -19 0 -42 -3 -50 -6z"/>
</g>
</svg>
